<?xml version="1.0" standalone="no"?>
<!DOCTYPE svg PUBLIC "-//W3C//DTD SVG 20010904//EN"
 "http://www.w3.org/TR/2001/REC-SVG-20010904/DTD/svg10.dtd">
<svg version="1.0" xmlns="http://www.w3.org/2000/svg"
 width="700.000000pt" height="700.000000pt" viewBox="0 0 700.000000 700.000000"
 preserveAspectRatio="xMidYMid meet">
<metadata>
Created by potrace 1.14, written by Peter Selinger 2001-2017
</metadata>
<g transform="translate(0.000000,700.000000) scale(0.100000,-0.100000)"
fill="#000000" stroke="none">
<path d="M3280 6993 c-19 -1 -87 -8 -150 -14 -507 -48 -1041 -231 -1486 -509
-1421 -891 -2009 -2649 -1412 -4228 61 -161 206 -454 298 -600 157 -251 395
-535 609 -729 558 -504 1225 -804 1986 -893 155 -18 460 -24 620 -11 496 39
907 152 1330 366 217 109 341 186 528 326 1022 766 1543 2030 1361 3299 -84
588 -315 1141 -673 1615 -666 880 -1709 1393 -2811 1383 -91 -1 -181 -3 -200
-5z m456 -888 c775 -133 1268 -871 1083 -1623 l-20 -82 59 -66 c171 -186 208
-445 96 -674 -46 -94 -169 -220 -261 -268 -172 -90 -397 -95 -568 -12 l-60 29
-30 -28 c-143 -136 -352 -209 -569 -198 -172 8 -331 69 -460 175 l-59 49 -57
-29 c-251 -125 -551 -72 -742 131 -222 234 -222 587 -1 822 l65 69 -20 83
c-76 302 -41 620 99 899 150 299 421 541 734 656 70 26 218 64 295 75 70 11
335 6 416 -8z m-792 -2894 c10 -11 15 -24 12 -29 -3 -4 28 -41 68 -81 l73 -73
35 31 c32 28 37 29 72 19 l37 -12 -43 -43 -42 -43 74 -75 75 -75 75 75 74 74
-24 26 -23 25 103 0 103 0 -21 -23 c-12 -13 -22 -26 -22 -29 0 -3 33 -38 73
-76 l72 -71 72 72 73 71 -40 41 c-22 22 -40 44 -40 47 0 4 16 12 36 18 34 11
38 10 68 -19 l32 -31 73 74 c40 41 71 79 67 84 -3 6 3 17 15 25 18 13 25 13
55 1 56 -24 155 -43 227 -45 63 -2 67 -3 67 -25 0 -17 -625 -1746 -780 -2156
-29 -79 -66 -108 -135 -108 -67 0 -104 28 -134 102 -59 151 -781 2144 -781
2159 0 19 17 24 127 33 34 3 93 16 130 29 37 13 71 25 74 26 3 0 14 -8 23 -18z"/>
<path d="M3315 5844 c-222 -40 -423 -144 -582 -302 -133 -131 -230 -301 -280
-490 -23 -85 -26 -116 -26 -252 0 -134 4 -168 26 -252 14 -53 44 -136 66 -184
23 -48 41 -88 41 -90 0 -1 -15 -6 -32 -9 -95 -21 -193 -102 -236 -193 -36 -77
-38 -211 -5 -284 95 -207 364 -273 546 -134 51 39 104 115 120 173 19 71 43
57 75 -44 56 -176 216 -308 407 -335 159 -22 315 30 429 145 63 63 116 154
131 227 4 19 13 38 19 42 20 13 36 9 36 -10 0 -35 61 -140 102 -177 22 -21 66
-49 97 -64 48 -22 69 -26 151 -26 83 0 102 3 151 28 76 37 150 117 178 192 45
117 17 261 -69 358 -32 37 -126 91 -178 102 -18 4 -31 10 -30 13 100 186 144
369 135 567 -23 502 -390 912 -895 1000 -104 18 -271 18 -377 -1z"/>
<path d="M2887 3114 c-6 -6 59 -194 72 -206 10 -11 85 68 77 80 -13 21 -143
131 -149 126z"/>
<path d="M4042 3047 l-72 -73 40 -39 c22 -21 41 -37 43 -34 5 6 77 204 77 212
0 17 -21 2 -88 -66z"/>
<path d="M3041 2866 l-53 -54 22 -58 c14 -38 35 -69 56 -88 l35 -29 68 64 c38
35 69 69 70 74 1 10 -129 145 -140 145 -2 0 -29 -24 -58 -54z"/>
<path d="M3431 2848 l-73 -70 73 -74 74 -74 75 75 74 75 -69 70 c-38 38 -72
70 -75 70 -3 0 -38 -33 -79 -72z"/>
<path d="M3839 2852 l-74 -71 75 -75 74 -76 32 31 c18 17 42 58 54 91 l22 61
-55 55 -55 54 -73 -70z"/>
<path d="M3225 2650 l-70 -70 75 -75 75 -75 75 75 74 75 -73 67 c-41 38 -77
69 -80 71 -4 1 -38 -29 -76 -68z"/>
<path d="M3635 2650 l-69 -70 69 -70 c38 -38 72 -70 76 -70 4 0 39 30 78 67
l72 66 -73 74 c-40 40 -75 73 -78 73 -3 0 -37 -31 -75 -70z"/>
<path d="M3100 2514 c0 -14 67 -194 75 -202 3 -3 21 10 40 29 l35 34 -75 75
c-41 41 -75 70 -75 64z"/>
<path d="M3431 2448 l-73 -70 73 -74 74 -74 75 75 74 75 -69 70 c-38 38 -72
70 -75 70 -3 0 -38 -33 -79 -72z"/>
<path d="M3835 2444 l-70 -63 35 -36 c19 -19 37 -32 40 -28 9 10 71 185 68
188 -2 2 -34 -26 -73 -61z"/>
<path d="M3248 2273 l-46 -48 25 -70 c14 -38 37 -82 52 -98 l26 -27 75 76 75
75 -75 69 c-41 38 -77 69 -80 70 -3 0 -27 -21 -52 -47z"/>
<path d="M3635 2250 l-69 -70 74 -75 c72 -72 75 -74 93 -57 9 10 31 54 47 97
l30 80 -47 47 c-26 27 -50 48 -53 48 -3 0 -37 -32 -75 -70z"/>
<path d="M3430 2050 l-75 -69 70 -71 c38 -38 74 -70 80 -70 6 0 42 32 80 70
l69 70 -69 70 c-38 39 -72 70 -75 70 -3 -1 -39 -32 -80 -70z"/>
<path d="M3351 1813 c18 -48 34 -90 36 -92 4 -5 63 50 63 59 0 4 -29 32 -65
64 l-65 57 31 -88z"/>
<path d="M3625 1840 l-59 -60 26 -27 c15 -15 30 -25 32 -22 6 6 67 169 63 169
-1 0 -29 -27 -62 -60z"/>
<path d="M3455 1680 l-39 -40 28 -83 c16 -45 37 -100 46 -121 l16 -40 44 123
43 122 -39 40 c-21 21 -43 39 -49 39 -6 0 -29 -18 -50 -40z"/>
</g>
</svg>
